<svg xmlns="http://www.w3.org/2000/svg" width="280" height="160" viewBox="0 0 280 160">
  <defs>
    <linearGradient id="bg" x1="0" y1="0" x2="1" y2="1">
      <stop offset="0%" stop-color="#0a1520"/>
      <stop offset="100%" stop-color="#0d1f2d"/>
    </linearGradient>
    <linearGradient id="accent" x1="0" y1="0" x2="1" y2="0">
      <stop offset="0%" stop-color="#00d4ff"/>
      <stop offset="100%" stop-color="#00ffc8"/>
    </linearGradient>
  </defs>
  <rect width="280" height="160" rx="8" fill="url(#bg)" stroke="#1a2a3a" stroke-width="1"/>
  <!-- QR code -->
  <g transform="translate(16,16) scale(2.9268)">
    <path d="M2,2h1v1h-1zM3,2h1v1h-1zM4,2h1v1h-1zM5,2h1v1h-1zM6,2h1v1h-1zM7,2h1v1h-1zM8,2h1v1h-1zM10,2h1v1h-1zM11,2h1v1h-1zM20,2h1v1h-1zM21,2h1v1h-1zM23,2h1v1h-1zM26,2h1v1h-1zM29,2h1v1h-1zM32,2h1v1h-1zM33,2h1v1h-1zM34,2h1v1h-1zM35,2h1v1h-1zM36,2h1v1h-1zM37,2h1v1h-1zM38,2h1v1h-1zM2,3h1v1h-1zM8,3h1v1h-1zM11,3h1v1h-1zM13,3h1v1h-1zM15,3h1v1h-1zM17,3h1v1h-1zM18,3h1v1h-1zM19,3h1v1h-1zM20,3h1v1h-1zM22,3h1v1h-1zM26,3h1v1h-1zM30,3h1v1h-1zM32,3h1v1h-1zM38,3h1v1h-1zM2,4h1v1h-1zM4,4h1v1h-1zM5,4h1v1h-1zM6,4h1v1h-1zM8,4h1v1h-1zM11,4h1v1h-1zM12,4h1v1h-1zM15,4h1v1h-1zM18,4h1v1h-1zM19,4h1v1h-1zM21,4h1v1h-1zM22,4h1v1h-1zM23,4h1v1h-1zM24,4h1v1h-1zM25,4h1v1h-1zM29,4h1v1h-1zM32,4h1v1h-1zM34,4h1v1h-1zM35,4h1v1h-1zM36,4h1v1h-1zM38,4h1v1h-1zM2,5h1v1h-1zM4,5h1v1h-1zM5,5h1v1h-1zM6,5h1v1h-1zM8,5h1v1h-1zM10,5h1v1h-1zM11,5h1v1h-1zM12,5h1v1h-1zM13,5h1v1h-1zM15,5h1v1h-1zM17,5h1v1h-1zM18,5h1v1h-1zM20,5h1v1h-1zM21,5h1v1h-1zM22,5h1v1h-1zM25,5h1v1h-1zM27,5h1v1h-1zM28,5h1v1h-1zM29,5h1v1h-1zM30,5h1v1h-1zM32,5h1v1h-1zM34,5h1v1h-1zM35,5h1v1h-1zM36,5h1v1h-1zM38,5h1v1h-1zM2,6h1v1h-1zM4,6h1v1h-1zM5,6h1v1h-1zM6,6h1v1h-1zM8,6h1v1h-1zM10,6h1v1h-1zM11,6h1v1h-1zM13,6h1v1h-1zM14,6h1v1h-1zM16,6h1v1h-1zM20,6h1v1h-1zM23,6h1v1h-1zM24,6h1v1h-1zM25,6h1v1h-1zM27,6h1v1h-1zM29,6h1v1h-1zM30,6h1v1h-1zM32,6h1v1h-1zM34,6h1v1h-1zM35,6h1v1h-1zM36,6h1v1h-1zM38,6h1v1h-1zM2,7h1v1h-1zM8,7h1v1h-1zM10,7h1v1h-1zM14,7h1v1h-1zM15,7h1v1h-1zM20,7h1v1h-1zM21,7h1v1h-1zM23,7h1v1h-1zM24,7h1v1h-1zM26,7h1v1h-1zM30,7h1v1h-1zM32,7h1v1h-1zM38,7h1v1h-1zM2,8h1v1h-1zM3,8h1v1h-1zM4,8h1v1h-1zM5,8h1v1h-1zM6,8h1v1h-1zM7,8h1v1h-1zM8,8h1v1h-1zM10,8h1v1h-1zM12,8h1v1h-1zM14,8h1v1h-1zM16,8h1v1h-1zM18,8h1v1h-1zM20,8h1v1h-1zM22,8h1v1h-1zM24,8h1v1h-1zM26,8h1v1h-1zM28,8h1v1h-1zM30,8h1v1h-1zM32,8h1v1h-1zM33,8h1v1h-1zM34,8h1v1h-1zM35,8h1v1h-1zM36,8h1v1h-1zM37,8h1v1h-1zM38,8h1v1h-1zM10,9h1v1h-1zM14,9h1v1h-1zM18,9h1v1h-1zM19,9h1v1h-1zM20,9h1v1h-1zM21,9h1v1h-1zM22,9h1v1h-1zM24,9h1v1h-1zM25,9h1v1h-1zM26,9h1v1h-1zM29,9h1v1h-1zM30,9h1v1h-1zM2,10h1v1h-1zM6,10h1v1h-1zM8,10h1v1h-1zM9,10h1v1h-1zM10,10h1v1h-1zM12,10h1v1h-1zM14,10h1v1h-1zM15,10h1v1h-1zM16,10h1v1h-1zM20,10h1v1h-1zM24,10h1v1h-1zM28,10h1v1h-1zM30,10h1v1h-1zM31,10h1v1h-1zM32,10h1v1h-1zM33,10h1v1h-1zM34,10h1v1h-1zM35,10h1v1h-1zM38,10h1v1h-1zM3,11h1v1h-1zM4,11h1v1h-1zM9,11h1v1h-1zM10,11h1v1h-1zM11,11h1v1h-1zM13,11h1v1h-1zM14,11h1v1h-1zM16,11h1v1h-1zM18,11h1v1h-1zM21,11h1v1h-1zM22,11h1v1h-1zM25,11h1v1h-1zM26,11h1v1h-1zM27,11h1v1h-1zM29,11h1v1h-1zM31,11h1v1h-1zM33,11h1v1h-1zM34,11h1v1h-1zM35,11h1v1h-1zM37,11h1v1h-1zM2,12h1v1h-1zM4,12h1v1h-1zM5,12h1v1h-1zM7,12h1v1h-1zM8,12h1v1h-1zM10,12h1v1h-1zM11,12h1v1h-1zM15,12h1v1h-1zM16,12h1v1h-1zM18,12h1v1h-1zM20,12h1v1h-1zM22,12h1v1h-1zM23,12h1v1h-1zM25,12h1v1h-1zM28,12h1v1h-1zM29,12h1v1h-1zM31,12h1v1h-1zM33,12h1v1h-1zM34,12h1v1h-1zM36,12h1v1h-1zM3,13h1v1h-1zM4,13h1v1h-1zM5,13h1v1h-1zM6,13h1v1h-1zM7,13h1v1h-1zM9,13h1v1h-1zM15,13h1v1h-1zM16,13h1v1h-1zM19,13h1v1h-1zM20,13h1v1h-1zM23,13h1v1h-1zM29,13h1v1h-1zM30,13h1v1h-1zM32,13h1v1h-1zM36,13h1v1h-1zM37,13h1v1h-1zM2,14h1v1h-1zM4,14h1v1h-1zM8,14h1v1h-1zM9,14h1v1h-1zM10,14h1v1h-1zM11,14h1v1h-1zM13,14h1v1h-1zM17,14h1v1h-1zM18,14h1v1h-1zM19,14h1v1h-1zM21,14h1v1h-1zM22,14h1v1h-1zM23,14h1v1h-1zM24,14h1v1h-1zM31,14h1v1h-1zM32,14h1v1h-1zM33,14h1v1h-1zM35,14h1v1h-1zM36,14h1v1h-1zM37,14h1v1h-1zM38,14h1v1h-1zM4,15h1v1h-1zM6,15h1v1h-1zM14,15h1v1h-1zM16,15h1v1h-1zM17,15h1v1h-1zM18,15h1v1h-1zM19,15h1v1h-1zM20,15h1v1h-1zM25,15h1v1h-1zM27,15h1v1h-1zM28,15h1v1h-1zM29,15h1v1h-1zM30,15h1v1h-1zM34,15h1v1h-1zM35,15h1v1h-1zM7,16h1v1h-1zM8,16h1v1h-1zM9,16h1v1h-1zM13,16h1v1h-1zM15,16h1v1h-1zM16,16h1v1h-1zM17,16h1v1h-1zM20,16h1v1h-1zM23,16h1v1h-1zM24,16h1v1h-1zM25,16h1v1h-1zM26,16h1v1h-1zM27,16h1v1h-1zM28,16h1v1h-1zM29,16h1v1h-1zM33,16h1v1h-1zM34,16h1v1h-1zM35,16h1v1h-1zM36,16h1v1h-1zM5,17h1v1h-1zM6,17h1v1h-1zM7,17h1v1h-1zM9,17h1v1h-1zM10,17h1v1h-1zM13,17h1v1h-1zM14,17h1v1h-1zM21,17h1v1h-1zM22,17h1v1h-1zM23,17h1v1h-1zM25,17h1v1h-1zM29,17h1v1h-1zM30,17h1v1h-1zM32,17h1v1h-1zM33,17h1v1h-1zM34,17h1v1h-1zM36,17h1v1h-1zM37,17h1v1h-1zM38,17h1v1h-1zM2,18h1v1h-1zM7,18h1v1h-1zM8,18h1v1h-1zM9,18h1v1h-1zM10,18h1v1h-1zM11,18h1v1h-1zM12,18h1v1h-1zM14,18h1v1h-1zM16,18h1v1h-1zM17,18h1v1h-1zM18,18h1v1h-1zM21,18h1v1h-1zM22,18h1v1h-1zM25,18h1v1h-1zM28,18h1v1h-1zM29,18h1v1h-1zM32,18h1v1h-1zM33,18h1v1h-1zM35,18h1v1h-1zM36,18h1v1h-1zM37,18h1v1h-1zM38,18h1v1h-1zM4,19h1v1h-1zM5,19h1v1h-1zM6,19h1v1h-1zM7,19h1v1h-1zM9,19h1v1h-1zM10,19h1v1h-1zM13,19h1v1h-1zM16,19h1v1h-1zM20,19h1v1h-1zM21,19h1v1h-1zM24,19h1v1h-1zM25,19h1v1h-1zM26,19h1v1h-1zM27,19h1v1h-1zM29,19h1v1h-1zM30,19h1v1h-1zM31,19h1v1h-1zM33,19h1v1h-1zM34,19h1v1h-1zM37,19h1v1h-1zM5,20h1v1h-1zM7,20h1v1h-1zM8,20h1v1h-1zM10,20h1v1h-1zM11,20h1v1h-1zM14,20h1v1h-1zM16,20h1v1h-1zM17,20h1v1h-1zM19,20h1v1h-1zM20,20h1v1h-1zM21,20h1v1h-1zM24,20h1v1h-1zM25,20h1v1h-1zM26,20h1v1h-1zM28,20h1v1h-1zM29,20h1v1h-1zM30,20h1v1h-1zM31,20h1v1h-1zM33,20h1v1h-1zM34,20h1v1h-1zM35,20h1v1h-1zM3,21h1v1h-1zM6,21h1v1h-1zM11,21h1v1h-1zM13,21h1v1h-1zM15,21h1v1h-1zM16,21h1v1h-1zM17,21h1v1h-1zM18,21h1v1h-1zM19,21h1v1h-1zM20,21h1v1h-1zM21,21h1v1h-1zM22,21h1v1h-1zM23,21h1v1h-1zM24,21h1v1h-1zM28,21h1v1h-1zM29,21h1v1h-1zM33,21h1v1h-1zM34,21h1v1h-1zM36,21h1v1h-1zM37,21h1v1h-1zM3,22h1v1h-1zM4,22h1v1h-1zM6,22h1v1h-1zM8,22h1v1h-1zM9,22h1v1h-1zM10,22h1v1h-1zM14,22h1v1h-1zM19,22h1v1h-1zM20,22h1v1h-1zM22,22h1v1h-1zM23,22h1v1h-1zM26,22h1v1h-1zM31,22h1v1h-1zM32,22h1v1h-1zM33,22h1v1h-1zM36,22h1v1h-1zM2,23h1v1h-1zM3,23h1v1h-1zM4,23h1v1h-1zM5,23h1v1h-1zM6,23h1v1h-1zM10,23h1v1h-1zM12,23h1v1h-1zM16,23h1v1h-1zM17,23h1v1h-1zM18,23h1v1h-1zM20,23h1v1h-1zM23,23h1v1h-1zM25,23h1v1h-1zM27,23h1v1h-1zM28,23h1v1h-1zM29,23h1v1h-1zM30,23h1v1h-1zM33,23h1v1h-1zM34,23h1v1h-1zM37,23h1v1h-1zM3,24h1v1h-1zM4,24h1v1h-1zM8,24h1v1h-1zM10,24h1v1h-1zM11,24h1v1h-1zM13,24h1v1h-1zM14,24h1v1h-1zM16,24h1v1h-1zM17,24h1v1h-1zM18,24h1v1h-1zM19,24h1v1h-1zM22,24h1v1h-1zM25,24h1v1h-1zM26,24h1v1h-1zM29,24h1v1h-1zM30,24h1v1h-1zM33,24h1v1h-1zM34,24h1v1h-1zM35,24h1v1h-1zM36,24h1v1h-1zM5,25h1v1h-1zM7,25h1v1h-1zM9,25h1v1h-1zM10,25h1v1h-1zM13,25h1v1h-1zM15,25h1v1h-1zM16,25h1v1h-1zM17,25h1v1h-1zM19,25h1v1h-1zM20,25h1v1h-1zM21,25h1v1h-1zM22,25h1v1h-1zM24,25h1v1h-1zM26,25h1v1h-1zM28,25h1v1h-1zM30,25h1v1h-1zM31,25h1v1h-1zM32,25h1v1h-1zM33,25h1v1h-1zM34,25h1v1h-1zM36,25h1v1h-1zM38,25h1v1h-1zM3,26h1v1h-1zM4,26h1v1h-1zM5,26h1v1h-1zM6,26h1v1h-1zM7,26h1v1h-1zM8,26h1v1h-1zM9,26h1v1h-1zM10,26h1v1h-1zM12,26h1v1h-1zM13,26h1v1h-1zM14,26h1v1h-1zM15,26h1v1h-1zM17,26h1v1h-1zM20,26h1v1h-1zM24,26h1v1h-1zM28,26h1v1h-1zM30,26h1v1h-1zM32,26h1v1h-1zM33,26h1v1h-1zM35,26h1v1h-1zM36,26h1v1h-1zM37,26h1v1h-1zM2,27h1v1h-1zM3,27h1v1h-1zM5,27h1v1h-1zM6,27h1v1h-1zM7,27h1v1h-1zM9,27h1v1h-1zM10,27h1v1h-1zM11,27h1v1h-1zM12,27h1v1h-1zM13,27h1v1h-1zM16,27h1v1h-1zM18,27h1v1h-1zM19,27h1v1h-1zM21,27h1v1h-1zM22,27h1v1h-1zM23,27h1v1h-1zM25,27h1v1h-1zM26,27h1v1h-1zM27,27h1v1h-1zM29,27h1v1h-1zM31,27h1v1h-1zM33,27h1v1h-1zM34,27h1v1h-1zM36,27h1v1h-1zM4,28h1v1h-1zM7,28h1v1h-1zM8,28h1v1h-1zM9,28h1v1h-1zM10,28h1v1h-1zM12,28h1v1h-1zM13,28h1v1h-1zM14,28h1v1h-1zM18,28h1v1h-1zM19,28h1v1h-1zM20,28h1v1h-1zM22,28h1v1h-1zM25,28h1v1h-1zM27,28h1v1h-1zM29,28h1v1h-1zM32,28h1v1h-1zM33,28h1v1h-1zM36,28h1v1h-1zM5,29h1v1h-1zM11,29h1v1h-1zM12,29h1v1h-1zM15,29h1v1h-1zM16,29h1v1h-1zM19,29h1v1h-1zM20,29h1v1h-1zM23,29h1v1h-1zM24,29h1v1h-1zM26,29h1v1h-1zM28,29h1v1h-1zM29,29h1v1h-1zM34,29h1v1h-1zM36,29h1v1h-1zM38,29h1v1h-1zM2,30h1v1h-1zM3,30h1v1h-1zM4,30h1v1h-1zM6,30h1v1h-1zM8,30h1v1h-1zM9,30h1v1h-1zM10,30h1v1h-1zM11,30h1v1h-1zM12,30h1v1h-1zM13,30h1v1h-1zM15,30h1v1h-1zM17,30h1v1h-1zM19,30h1v1h-1zM21,30h1v1h-1zM22,30h1v1h-1zM23,30h1v1h-1zM24,30h1v1h-1zM26,30h1v1h-1zM30,30h1v1h-1zM31,30h1v1h-1zM32,30h1v1h-1zM33,30h1v1h-1zM34,30h1v1h-1zM36,30h1v1h-1zM38,30h1v1h-1zM10,31h1v1h-1zM11,31h1v1h-1zM12,31h1v1h-1zM13,31h1v1h-1zM16,31h1v1h-1zM17,31h1v1h-1zM18,31h1v1h-1zM19,31h1v1h-1zM20,31h1v1h-1zM22,31h1v1h-1zM25,31h1v1h-1zM27,31h1v1h-1zM28,31h1v1h-1zM29,31h1v1h-1zM30,31h1v1h-1zM34,31h1v1h-1zM2,32h1v1h-1zM3,32h1v1h-1zM4,32h1v1h-1zM5,32h1v1h-1zM6,32h1v1h-1zM7,32h1v1h-1zM8,32h1v1h-1zM10,32h1v1h-1zM11,32h1v1h-1zM12,32h1v1h-1zM16,32h1v1h-1zM17,32h1v1h-1zM18,32h1v1h-1zM20,32h1v1h-1zM22,32h1v1h-1zM23,32h1v1h-1zM24,32h1v1h-1zM25,32h1v1h-1zM30,32h1v1h-1zM32,32h1v1h-1zM34,32h1v1h-1zM37,32h1v1h-1zM2,33h1v1h-1zM8,33h1v1h-1zM12,33h1v1h-1zM13,33h1v1h-1zM14,33h1v1h-1zM15,33h1v1h-1zM17,33h1v1h-1zM21,33h1v1h-1zM22,33h1v1h-1zM23,33h1v1h-1zM26,33h1v1h-1zM30,33h1v1h-1zM34,33h1v1h-1zM35,33h1v1h-1zM36,33h1v1h-1zM2,34h1v1h-1zM4,34h1v1h-1zM5,34h1v1h-1zM6,34h1v1h-1zM8,34h1v1h-1zM10,34h1v1h-1zM11,34h1v1h-1zM12,34h1v1h-1zM13,34h1v1h-1zM15,34h1v1h-1zM17,34h1v1h-1zM18,34h1v1h-1zM22,34h1v1h-1zM25,34h1v1h-1zM28,34h1v1h-1zM30,34h1v1h-1zM31,34h1v1h-1zM32,34h1v1h-1zM33,34h1v1h-1zM34,34h1v1h-1zM35,34h1v1h-1zM36,34h1v1h-1zM2,35h1v1h-1zM4,35h1v1h-1zM5,35h1v1h-1zM6,35h1v1h-1zM8,35h1v1h-1zM11,35h1v1h-1zM12,35h1v1h-1zM14,35h1v1h-1zM16,35h1v1h-1zM20,35h1v1h-1zM21,35h1v1h-1zM23,35h1v1h-1zM24,35h1v1h-1zM25,35h1v1h-1zM26,35h1v1h-1zM30,35h1v1h-1zM31,35h1v1h-1zM32,35h1v1h-1zM33,35h1v1h-1zM35,35h1v1h-1zM38,35h1v1h-1zM2,36h1v1h-1zM4,36h1v1h-1zM5,36h1v1h-1zM6,36h1v1h-1zM8,36h1v1h-1zM11,36h1v1h-1zM12,36h1v1h-1zM14,36h1v1h-1zM17,36h1v1h-1zM19,36h1v1h-1zM21,36h1v1h-1zM23,36h1v1h-1zM24,36h1v1h-1zM25,36h1v1h-1zM29,36h1v1h-1zM30,36h1v1h-1zM31,36h1v1h-1zM32,36h1v1h-1zM35,36h1v1h-1zM2,37h1v1h-1zM8,37h1v1h-1zM11,37h1v1h-1zM12,37h1v1h-1zM15,37h1v1h-1zM17,37h1v1h-1zM18,37h1v1h-1zM19,37h1v1h-1zM20,37h1v1h-1zM21,37h1v1h-1zM22,37h1v1h-1zM23,37h1v1h-1zM25,37h1v1h-1zM34,37h1v1h-1zM36,37h1v1h-1zM37,37h1v1h-1zM2,38h1v1h-1zM3,38h1v1h-1zM4,38h1v1h-1zM5,38h1v1h-1zM6,38h1v1h-1zM7,38h1v1h-1zM8,38h1v1h-1zM10,38h1v1h-1zM13,38h1v1h-1zM14,38h1v1h-1zM15,38h1v1h-1zM19,38h1v1h-1zM22,38h1v1h-1zM23,38h1v1h-1zM24,38h1v1h-1zM26,38h1v1h-1zM28,38h1v1h-1zM33,38h1v1h-1zM35,38h1v1h-1zM36,38h1v1h-1zM37,38h1v1h-1zM38,38h1v1h-1z" fill="#e0e6ed"/>
  </g>
  <!-- Text -->
  <text x="152" y="36" fill="url(#accent)" font-family="monospace" font-size="11" font-weight="bold">FORGE-ALLOY</text>
  <text x="152" y="54" fill="#8a92a5" font-family="monospace" font-size="9">attestation chain</text>
  <text x="152" y="78" fill="#e0e6ed" font-family="monospace" font-size="8">76654a5661006320</text>
  <text x="152" y="96" fill="#5a6a7a" font-family="monospace" font-size="8">84 commits</text>
  <text x="152" y="118" fill="#00ffc8" font-family="monospace" font-size="8">scan to verify</text>
  <!-- Bottom bar -->
  <rect x="0" y="148" width="280" height="12" rx="0" fill="rgba(0,212,255,0.06)"/>
  <text x="140" y="157" fill="#5a6a7a" font-family="monospace" font-size="7" text-anchor="middle">git is the merkle chain</text>
</svg>