<svg xmlns="http://www.w3.org/2000/svg" width="280" height="160" viewBox="0 0 280 160">
  <defs>
    <linearGradient id="bg" x1="0" y1="0" x2="1" y2="1">
      <stop offset="0%" stop-color="#0a1520"/>
      <stop offset="100%" stop-color="#0d1f2d"/>
    </linearGradient>
    <linearGradient id="accent" x1="0" y1="0" x2="1" y2="0">
      <stop offset="0%" stop-color="#00d4ff"/>
      <stop offset="100%" stop-color="#00ffc8"/>
    </linearGradient>
  </defs>
  <rect width="280" height="160" rx="8" fill="url(#bg)" stroke="#1a2a3a" stroke-width="1"/>
  <!-- QR code -->
  <g transform="translate(16,16) scale(2.6667)">
    <path d="M2,2h1v1h-1zM3,2h1v1h-1zM4,2h1v1h-1zM5,2h1v1h-1zM6,2h1v1h-1zM7,2h1v1h-1zM8,2h1v1h-1zM11,2h1v1h-1zM12,2h1v1h-1zM13,2h1v1h-1zM14,2h1v1h-1zM16,2h1v1h-1zM17,2h1v1h-1zM18,2h1v1h-1zM21,2h1v1h-1zM24,2h1v1h-1zM25,2h1v1h-1zM26,2h1v1h-1zM30,2h1v1h-1zM31,2h1v1h-1zM32,2h1v1h-1zM33,2h1v1h-1zM34,2h1v1h-1zM36,2h1v1h-1zM37,2h1v1h-1zM38,2h1v1h-1zM39,2h1v1h-1zM40,2h1v1h-1zM41,2h1v1h-1zM42,2h1v1h-1zM2,3h1v1h-1zM8,3h1v1h-1zM12,3h1v1h-1zM13,3h1v1h-1zM15,3h1v1h-1zM18,3h1v1h-1zM20,3h1v1h-1zM24,3h1v1h-1zM29,3h1v1h-1zM31,3h1v1h-1zM34,3h1v1h-1zM36,3h1v1h-1zM42,3h1v1h-1zM2,4h1v1h-1zM4,4h1v1h-1zM5,4h1v1h-1zM6,4h1v1h-1zM8,4h1v1h-1zM10,4h1v1h-1zM13,4h1v1h-1zM15,4h1v1h-1zM18,4h1v1h-1zM22,4h1v1h-1zM26,4h1v1h-1zM28,4h1v1h-1zM29,4h1v1h-1zM30,4h1v1h-1zM31,4h1v1h-1zM32,4h1v1h-1zM33,4h1v1h-1zM34,4h1v1h-1zM36,4h1v1h-1zM38,4h1v1h-1zM39,4h1v1h-1zM40,4h1v1h-1zM42,4h1v1h-1zM2,5h1v1h-1zM4,5h1v1h-1zM5,5h1v1h-1zM6,5h1v1h-1zM8,5h1v1h-1zM10,5h1v1h-1zM11,5h1v1h-1zM14,5h1v1h-1zM15,5h1v1h-1zM16,5h1v1h-1zM18,5h1v1h-1zM20,5h1v1h-1zM23,5h1v1h-1zM24,5h1v1h-1zM36,5h1v1h-1zM38,5h1v1h-1zM39,5h1v1h-1zM40,5h1v1h-1zM42,5h1v1h-1zM2,6h1v1h-1zM4,6h1v1h-1zM5,6h1v1h-1zM6,6h1v1h-1zM8,6h1v1h-1zM10,6h1v1h-1zM12,6h1v1h-1zM13,6h1v1h-1zM14,6h1v1h-1zM17,6h1v1h-1zM18,6h1v1h-1zM21,6h1v1h-1zM23,6h1v1h-1zM25,6h1v1h-1zM27,6h1v1h-1zM28,6h1v1h-1zM30,6h1v1h-1zM32,6h1v1h-1zM33,6h1v1h-1zM34,6h1v1h-1zM36,6h1v1h-1zM38,6h1v1h-1zM39,6h1v1h-1zM40,6h1v1h-1zM42,6h1v1h-1zM2,7h1v1h-1zM8,7h1v1h-1zM10,7h1v1h-1zM11,7h1v1h-1zM12,7h1v1h-1zM16,7h1v1h-1zM22,7h1v1h-1zM29,7h1v1h-1zM31,7h1v1h-1zM32,7h1v1h-1zM34,7h1v1h-1zM36,7h1v1h-1zM42,7h1v1h-1zM2,8h1v1h-1zM3,8h1v1h-1zM4,8h1v1h-1zM5,8h1v1h-1zM6,8h1v1h-1zM7,8h1v1h-1zM8,8h1v1h-1zM10,8h1v1h-1zM12,8h1v1h-1zM14,8h1v1h-1zM16,8h1v1h-1zM18,8h1v1h-1zM20,8h1v1h-1zM22,8h1v1h-1zM24,8h1v1h-1zM26,8h1v1h-1zM28,8h1v1h-1zM30,8h1v1h-1zM32,8h1v1h-1zM34,8h1v1h-1zM36,8h1v1h-1zM37,8h1v1h-1zM38,8h1v1h-1zM39,8h1v1h-1zM40,8h1v1h-1zM41,8h1v1h-1zM42,8h1v1h-1zM10,9h1v1h-1zM11,9h1v1h-1zM12,9h1v1h-1zM15,9h1v1h-1zM16,9h1v1h-1zM20,9h1v1h-1zM21,9h1v1h-1zM22,9h1v1h-1zM23,9h1v1h-1zM24,9h1v1h-1zM28,9h1v1h-1zM29,9h1v1h-1zM30,9h1v1h-1zM33,9h1v1h-1zM34,9h1v1h-1zM2,10h1v1h-1zM4,10h1v1h-1zM5,10h1v1h-1zM6,10h1v1h-1zM7,10h1v1h-1zM8,10h1v1h-1zM13,10h1v1h-1zM15,10h1v1h-1zM16,10h1v1h-1zM19,10h1v1h-1zM21,10h1v1h-1zM22,10h1v1h-1zM24,10h1v1h-1zM26,10h1v1h-1zM27,10h1v1h-1zM28,10h1v1h-1zM31,10h1v1h-1zM36,10h1v1h-1zM37,10h1v1h-1zM38,10h1v1h-1zM39,10h1v1h-1zM40,10h1v1h-1zM3,11h1v1h-1zM6,11h1v1h-1zM7,11h1v1h-1zM11,11h1v1h-1zM17,11h1v1h-1zM18,11h1v1h-1zM20,11h1v1h-1zM21,11h1v1h-1zM22,11h1v1h-1zM23,11h1v1h-1zM25,11h1v1h-1zM27,11h1v1h-1zM30,11h1v1h-1zM32,11h1v1h-1zM33,11h1v1h-1zM34,11h1v1h-1zM35,11h1v1h-1zM36,11h1v1h-1zM37,11h1v1h-1zM38,11h1v1h-1zM40,11h1v1h-1zM41,11h1v1h-1zM42,11h1v1h-1zM2,12h1v1h-1zM5,12h1v1h-1zM6,12h1v1h-1zM7,12h1v1h-1zM8,12h1v1h-1zM9,12h1v1h-1zM13,12h1v1h-1zM16,12h1v1h-1zM19,12h1v1h-1zM20,12h1v1h-1zM22,12h1v1h-1zM27,12h1v1h-1zM28,12h1v1h-1zM29,12h1v1h-1zM34,12h1v1h-1zM3,13h1v1h-1zM4,13h1v1h-1zM6,13h1v1h-1zM7,13h1v1h-1zM9,13h1v1h-1zM12,13h1v1h-1zM17,13h1v1h-1zM18,13h1v1h-1zM23,13h1v1h-1zM28,13h1v1h-1zM33,13h1v1h-1zM34,13h1v1h-1zM36,13h1v1h-1zM39,13h1v1h-1zM41,13h1v1h-1zM42,13h1v1h-1zM4,14h1v1h-1zM5,14h1v1h-1zM7,14h1v1h-1zM8,14h1v1h-1zM9,14h1v1h-1zM11,14h1v1h-1zM12,14h1v1h-1zM13,14h1v1h-1zM14,14h1v1h-1zM16,14h1v1h-1zM17,14h1v1h-1zM18,14h1v1h-1zM19,14h1v1h-1zM21,14h1v1h-1zM24,14h1v1h-1zM27,14h1v1h-1zM28,14h1v1h-1zM29,14h1v1h-1zM31,14h1v1h-1zM32,14h1v1h-1zM33,14h1v1h-1zM34,14h1v1h-1zM35,14h1v1h-1zM39,14h1v1h-1zM40,14h1v1h-1zM3,15h1v1h-1zM5,15h1v1h-1zM7,15h1v1h-1zM10,15h1v1h-1zM11,15h1v1h-1zM15,15h1v1h-1zM20,15h1v1h-1zM22,15h1v1h-1zM23,15h1v1h-1zM26,15h1v1h-1zM27,15h1v1h-1zM28,15h1v1h-1zM29,15h1v1h-1zM30,15h1v1h-1zM32,15h1v1h-1zM36,15h1v1h-1zM37,15h1v1h-1zM38,15h1v1h-1zM39,15h1v1h-1zM40,15h1v1h-1zM41,15h1v1h-1zM42,15h1v1h-1zM2,16h1v1h-1zM3,16h1v1h-1zM4,16h1v1h-1zM5,16h1v1h-1zM8,16h1v1h-1zM13,16h1v1h-1zM14,16h1v1h-1zM15,16h1v1h-1zM16,16h1v1h-1zM20,16h1v1h-1zM21,16h1v1h-1zM24,16h1v1h-1zM27,16h1v1h-1zM28,16h1v1h-1zM34,16h1v1h-1zM35,16h1v1h-1zM37,16h1v1h-1zM40,16h1v1h-1zM4,17h1v1h-1zM6,17h1v1h-1zM9,17h1v1h-1zM14,17h1v1h-1zM16,17h1v1h-1zM20,17h1v1h-1zM21,17h1v1h-1zM22,17h1v1h-1zM23,17h1v1h-1zM26,17h1v1h-1zM28,17h1v1h-1zM30,17h1v1h-1zM36,17h1v1h-1zM37,17h1v1h-1zM39,17h1v1h-1zM41,17h1v1h-1zM2,18h1v1h-1zM3,18h1v1h-1zM5,18h1v1h-1zM7,18h1v1h-1zM8,18h1v1h-1zM13,18h1v1h-1zM16,18h1v1h-1zM19,18h1v1h-1zM21,18h1v1h-1zM22,18h1v1h-1zM24,18h1v1h-1zM27,18h1v1h-1zM28,18h1v1h-1zM31,18h1v1h-1zM32,18h1v1h-1zM35,18h1v1h-1zM37,18h1v1h-1zM40,18h1v1h-1zM2,19h1v1h-1zM3,19h1v1h-1zM5,19h1v1h-1zM6,19h1v1h-1zM7,19h1v1h-1zM10,19h1v1h-1zM11,19h1v1h-1zM12,19h1v1h-1zM15,19h1v1h-1zM16,19h1v1h-1zM18,19h1v1h-1zM19,19h1v1h-1zM20,19h1v1h-1zM21,19h1v1h-1zM23,19h1v1h-1zM25,19h1v1h-1zM26,19h1v1h-1zM27,19h1v1h-1zM28,19h1v1h-1zM30,19h1v1h-1zM32,19h1v1h-1zM33,19h1v1h-1zM34,19h1v1h-1zM36,19h1v1h-1zM37,19h1v1h-1zM38,19h1v1h-1zM40,19h1v1h-1zM41,19h1v1h-1zM42,19h1v1h-1zM3,20h1v1h-1zM7,20h1v1h-1zM8,20h1v1h-1zM9,20h1v1h-1zM10,20h1v1h-1zM11,20h1v1h-1zM13,20h1v1h-1zM14,20h1v1h-1zM15,20h1v1h-1zM16,20h1v1h-1zM18,20h1v1h-1zM19,20h1v1h-1zM22,20h1v1h-1zM23,20h1v1h-1zM27,20h1v1h-1zM28,20h1v1h-1zM29,20h1v1h-1zM32,20h1v1h-1zM38,20h1v1h-1zM41,20h1v1h-1zM2,21h1v1h-1zM5,21h1v1h-1zM6,21h1v1h-1zM10,21h1v1h-1zM11,21h1v1h-1zM12,21h1v1h-1zM19,21h1v1h-1zM20,21h1v1h-1zM22,21h1v1h-1zM23,21h1v1h-1zM24,21h1v1h-1zM26,21h1v1h-1zM27,21h1v1h-1zM29,21h1v1h-1zM30,21h1v1h-1zM33,21h1v1h-1zM35,21h1v1h-1zM36,21h1v1h-1zM38,21h1v1h-1zM39,21h1v1h-1zM41,21h1v1h-1zM42,21h1v1h-1zM2,22h1v1h-1zM6,22h1v1h-1zM8,22h1v1h-1zM9,22h1v1h-1zM10,22h1v1h-1zM13,22h1v1h-1zM14,22h1v1h-1zM23,22h1v1h-1zM26,22h1v1h-1zM28,22h1v1h-1zM32,22h1v1h-1zM37,22h1v1h-1zM39,22h1v1h-1zM40,22h1v1h-1zM41,22h1v1h-1zM4,23h1v1h-1zM5,23h1v1h-1zM6,23h1v1h-1zM11,23h1v1h-1zM12,23h1v1h-1zM17,23h1v1h-1zM18,23h1v1h-1zM19,23h1v1h-1zM20,23h1v1h-1zM21,23h1v1h-1zM24,23h1v1h-1zM25,23h1v1h-1zM30,23h1v1h-1zM33,23h1v1h-1zM34,23h1v1h-1zM35,23h1v1h-1zM36,23h1v1h-1zM38,23h1v1h-1zM41,23h1v1h-1zM42,23h1v1h-1zM4,24h1v1h-1zM8,24h1v1h-1zM9,24h1v1h-1zM11,24h1v1h-1zM12,24h1v1h-1zM15,24h1v1h-1zM20,24h1v1h-1zM22,24h1v1h-1zM23,24h1v1h-1zM26,24h1v1h-1zM29,24h1v1h-1zM32,24h1v1h-1zM39,24h1v1h-1zM2,25h1v1h-1zM11,25h1v1h-1zM12,25h1v1h-1zM13,25h1v1h-1zM16,25h1v1h-1zM20,25h1v1h-1zM23,25h1v1h-1zM25,25h1v1h-1zM28,25h1v1h-1zM29,25h1v1h-1zM30,25h1v1h-1zM33,25h1v1h-1zM35,25h1v1h-1zM36,25h1v1h-1zM38,25h1v1h-1zM41,25h1v1h-1zM42,25h1v1h-1zM3,26h1v1h-1zM5,26h1v1h-1zM8,26h1v1h-1zM10,26h1v1h-1zM18,26h1v1h-1zM19,26h1v1h-1zM21,26h1v1h-1zM26,26h1v1h-1zM27,26h1v1h-1zM28,26h1v1h-1zM30,26h1v1h-1zM31,26h1v1h-1zM37,26h1v1h-1zM39,26h1v1h-1zM40,26h1v1h-1zM7,27h1v1h-1zM9,27h1v1h-1zM12,27h1v1h-1zM13,27h1v1h-1zM14,27h1v1h-1zM15,27h1v1h-1zM16,27h1v1h-1zM21,27h1v1h-1zM22,27h1v1h-1zM25,27h1v1h-1zM27,27h1v1h-1zM30,27h1v1h-1zM31,27h1v1h-1zM32,27h1v1h-1zM33,27h1v1h-1zM35,27h1v1h-1zM36,27h1v1h-1zM38,27h1v1h-1zM39,27h1v1h-1zM42,27h1v1h-1zM2,28h1v1h-1zM8,28h1v1h-1zM9,28h1v1h-1zM12,28h1v1h-1zM13,28h1v1h-1zM17,28h1v1h-1zM19,28h1v1h-1zM22,28h1v1h-1zM23,28h1v1h-1zM26,28h1v1h-1zM29,28h1v1h-1zM34,28h1v1h-1zM41,28h1v1h-1zM2,29h1v1h-1zM4,29h1v1h-1zM6,29h1v1h-1zM9,29h1v1h-1zM10,29h1v1h-1zM11,29h1v1h-1zM14,29h1v1h-1zM16,29h1v1h-1zM17,29h1v1h-1zM18,29h1v1h-1zM21,29h1v1h-1zM22,29h1v1h-1zM23,29h1v1h-1zM24,29h1v1h-1zM28,29h1v1h-1zM33,29h1v1h-1zM34,29h1v1h-1zM35,29h1v1h-1zM36,29h1v1h-1zM38,29h1v1h-1zM39,29h1v1h-1zM41,29h1v1h-1zM3,30h1v1h-1zM8,30h1v1h-1zM9,30h1v1h-1zM13,30h1v1h-1zM14,30h1v1h-1zM15,30h1v1h-1zM18,30h1v1h-1zM19,30h1v1h-1zM22,30h1v1h-1zM24,30h1v1h-1zM26,30h1v1h-1zM27,30h1v1h-1zM29,30h1v1h-1zM30,30h1v1h-1zM31,30h1v1h-1zM33,30h1v1h-1zM35,30h1v1h-1zM39,30h1v1h-1zM40,30h1v1h-1zM2,31h1v1h-1zM4,31h1v1h-1zM7,31h1v1h-1zM10,31h1v1h-1zM11,31h1v1h-1zM12,31h1v1h-1zM14,31h1v1h-1zM17,31h1v1h-1zM18,31h1v1h-1zM20,31h1v1h-1zM23,31h1v1h-1zM27,31h1v1h-1zM29,31h1v1h-1zM31,31h1v1h-1zM32,31h1v1h-1zM34,31h1v1h-1zM35,31h1v1h-1zM38,31h1v1h-1zM40,31h1v1h-1zM42,31h1v1h-1zM2,32h1v1h-1zM8,32h1v1h-1zM11,32h1v1h-1zM13,32h1v1h-1zM15,32h1v1h-1zM16,32h1v1h-1zM17,32h1v1h-1zM20,32h1v1h-1zM22,32h1v1h-1zM25,32h1v1h-1zM26,32h1v1h-1zM29,32h1v1h-1zM30,32h1v1h-1zM33,32h1v1h-1zM35,32h1v1h-1zM36,32h1v1h-1zM37,32h1v1h-1zM39,32h1v1h-1zM2,33h1v1h-1zM5,33h1v1h-1zM7,33h1v1h-1zM11,33h1v1h-1zM12,33h1v1h-1zM13,33h1v1h-1zM15,33h1v1h-1zM17,33h1v1h-1zM18,33h1v1h-1zM23,33h1v1h-1zM25,33h1v1h-1zM28,33h1v1h-1zM29,33h1v1h-1zM33,33h1v1h-1zM34,33h1v1h-1zM35,33h1v1h-1zM36,33h1v1h-1zM37,33h1v1h-1zM39,33h1v1h-1zM2,34h1v1h-1zM4,34h1v1h-1zM5,34h1v1h-1zM7,34h1v1h-1zM8,34h1v1h-1zM10,34h1v1h-1zM11,34h1v1h-1zM14,34h1v1h-1zM15,34h1v1h-1zM19,34h1v1h-1zM20,34h1v1h-1zM22,34h1v1h-1zM25,34h1v1h-1zM26,34h1v1h-1zM28,34h1v1h-1zM29,34h1v1h-1zM31,34h1v1h-1zM33,34h1v1h-1zM34,34h1v1h-1zM35,34h1v1h-1zM36,34h1v1h-1zM37,34h1v1h-1zM38,34h1v1h-1zM40,34h1v1h-1zM41,34h1v1h-1zM42,34h1v1h-1zM10,35h1v1h-1zM12,35h1v1h-1zM14,35h1v1h-1zM17,35h1v1h-1zM18,35h1v1h-1zM21,35h1v1h-1zM24,35h1v1h-1zM25,35h1v1h-1zM30,35h1v1h-1zM31,35h1v1h-1zM32,35h1v1h-1zM33,35h1v1h-1zM34,35h1v1h-1zM38,35h1v1h-1zM39,35h1v1h-1zM41,35h1v1h-1zM42,35h1v1h-1zM2,36h1v1h-1zM3,36h1v1h-1zM4,36h1v1h-1zM5,36h1v1h-1zM6,36h1v1h-1zM7,36h1v1h-1zM8,36h1v1h-1zM12,36h1v1h-1zM13,36h1v1h-1zM14,36h1v1h-1zM15,36h1v1h-1zM16,36h1v1h-1zM18,36h1v1h-1zM20,36h1v1h-1zM24,36h1v1h-1zM26,36h1v1h-1zM29,36h1v1h-1zM30,36h1v1h-1zM31,36h1v1h-1zM33,36h1v1h-1zM34,36h1v1h-1zM36,36h1v1h-1zM38,36h1v1h-1zM39,36h1v1h-1zM2,37h1v1h-1zM8,37h1v1h-1zM10,37h1v1h-1zM13,37h1v1h-1zM15,37h1v1h-1zM16,37h1v1h-1zM18,37h1v1h-1zM22,37h1v1h-1zM26,37h1v1h-1zM28,37h1v1h-1zM29,37h1v1h-1zM31,37h1v1h-1zM32,37h1v1h-1zM33,37h1v1h-1zM34,37h1v1h-1zM38,37h1v1h-1zM39,37h1v1h-1zM2,38h1v1h-1zM4,38h1v1h-1zM5,38h1v1h-1zM6,38h1v1h-1zM8,38h1v1h-1zM10,38h1v1h-1zM11,38h1v1h-1zM14,38h1v1h-1zM16,38h1v1h-1zM17,38h1v1h-1zM20,38h1v1h-1zM22,38h1v1h-1zM23,38h1v1h-1zM24,38h1v1h-1zM29,38h1v1h-1zM34,38h1v1h-1zM35,38h1v1h-1zM36,38h1v1h-1zM37,38h1v1h-1zM38,38h1v1h-1zM40,38h1v1h-1zM2,39h1v1h-1zM4,39h1v1h-1zM5,39h1v1h-1zM6,39h1v1h-1zM8,39h1v1h-1zM10,39h1v1h-1zM12,39h1v1h-1zM13,39h1v1h-1zM15,39h1v1h-1zM19,39h1v1h-1zM21,39h1v1h-1zM22,39h1v1h-1zM25,39h1v1h-1zM27,39h1v1h-1zM28,39h1v1h-1zM30,39h1v1h-1zM31,39h1v1h-1zM32,39h1v1h-1zM33,39h1v1h-1zM34,39h1v1h-1zM35,39h1v1h-1zM37,39h1v1h-1zM2,40h1v1h-1zM4,40h1v1h-1zM5,40h1v1h-1zM6,40h1v1h-1zM8,40h1v1h-1zM10,40h1v1h-1zM11,40h1v1h-1zM12,40h1v1h-1zM16,40h1v1h-1zM19,40h1v1h-1zM24,40h1v1h-1zM27,40h1v1h-1zM28,40h1v1h-1zM29,40h1v1h-1zM30,40h1v1h-1zM33,40h1v1h-1zM34,40h1v1h-1zM35,40h1v1h-1zM36,40h1v1h-1zM37,40h1v1h-1zM38,40h1v1h-1zM2,41h1v1h-1zM8,41h1v1h-1zM11,41h1v1h-1zM17,41h1v1h-1zM19,41h1v1h-1zM21,41h1v1h-1zM22,41h1v1h-1zM23,41h1v1h-1zM25,41h1v1h-1zM29,41h1v1h-1zM33,41h1v1h-1zM34,41h1v1h-1zM36,41h1v1h-1zM38,41h1v1h-1zM39,41h1v1h-1zM41,41h1v1h-1zM2,42h1v1h-1zM3,42h1v1h-1zM4,42h1v1h-1zM5,42h1v1h-1zM6,42h1v1h-1zM7,42h1v1h-1zM8,42h1v1h-1zM10,42h1v1h-1zM12,42h1v1h-1zM13,42h1v1h-1zM16,42h1v1h-1zM17,42h1v1h-1zM18,42h1v1h-1zM20,42h1v1h-1zM24,42h1v1h-1zM25,42h1v1h-1zM27,42h1v1h-1zM28,42h1v1h-1zM29,42h1v1h-1zM31,42h1v1h-1zM33,42h1v1h-1zM36,42h1v1h-1zM37,42h1v1h-1zM38,42h1v1h-1zM40,42h1v1h-1z" fill="#e0e6ed"/>
  </g>
  <!-- Text -->
  <text x="152" y="36" fill="url(#accent)" font-family="monospace" font-size="11" font-weight="bold">FORGE-ALLOY</text>
  <text x="152" y="54" fill="#8a92a5" font-family="monospace" font-size="9">attestation chain</text>
  <text x="152" y="78" fill="#e0e6ed" font-family="monospace" font-size="8">a16b4540a46a0b76</text>
  <text x="152" y="96" fill="#5a6a7a" font-family="monospace" font-size="8">101 commits</text>
  <text x="152" y="118" fill="#00ffc8" font-family="monospace" font-size="8">scan to verify</text>
  <!-- Bottom bar -->
  <rect x="0" y="148" width="280" height="12" rx="0" fill="rgba(0,212,255,0.06)"/>
  <text x="140" y="157" fill="#5a6a7a" font-family="monospace" font-size="7" text-anchor="middle">git is the merkle chain</text>
</svg>