<svg xmlns="http://www.w3.org/2000/svg" width="280" height="160" viewBox="0 0 280 160">
  <defs>
    <linearGradient id="bg" x1="0" y1="0" x2="1" y2="1">
      <stop offset="0%" stop-color="#0a1520"/>
      <stop offset="100%" stop-color="#0d1f2d"/>
    </linearGradient>
    <linearGradient id="accent" x1="0" y1="0" x2="1" y2="0">
      <stop offset="0%" stop-color="#00d4ff"/>
      <stop offset="100%" stop-color="#00ffc8"/>
    </linearGradient>
  </defs>
  <rect width="280" height="160" rx="8" fill="url(#bg)" stroke="#1a2a3a" stroke-width="1"/>
  <!-- QR code -->
  <g transform="translate(16,16) scale(2.6667)">
    <path d="M2,2h1v1h-1zM3,2h1v1h-1zM4,2h1v1h-1zM5,2h1v1h-1zM6,2h1v1h-1zM7,2h1v1h-1zM8,2h1v1h-1zM10,2h1v1h-1zM11,2h1v1h-1zM12,2h1v1h-1zM13,2h1v1h-1zM14,2h1v1h-1zM17,2h1v1h-1zM19,2h1v1h-1zM20,2h1v1h-1zM26,2h1v1h-1zM27,2h1v1h-1zM28,2h1v1h-1zM32,2h1v1h-1zM36,2h1v1h-1zM37,2h1v1h-1zM38,2h1v1h-1zM39,2h1v1h-1zM40,2h1v1h-1zM41,2h1v1h-1zM42,2h1v1h-1zM2,3h1v1h-1zM8,3h1v1h-1zM10,3h1v1h-1zM11,3h1v1h-1zM13,3h1v1h-1zM14,3h1v1h-1zM18,3h1v1h-1zM20,3h1v1h-1zM21,3h1v1h-1zM22,3h1v1h-1zM23,3h1v1h-1zM24,3h1v1h-1zM27,3h1v1h-1zM28,3h1v1h-1zM31,3h1v1h-1zM33,3h1v1h-1zM36,3h1v1h-1zM42,3h1v1h-1zM2,4h1v1h-1zM4,4h1v1h-1zM5,4h1v1h-1zM6,4h1v1h-1zM8,4h1v1h-1zM10,4h1v1h-1zM12,4h1v1h-1zM21,4h1v1h-1zM24,4h1v1h-1zM27,4h1v1h-1zM28,4h1v1h-1zM29,4h1v1h-1zM31,4h1v1h-1zM32,4h1v1h-1zM34,4h1v1h-1zM36,4h1v1h-1zM38,4h1v1h-1zM39,4h1v1h-1zM40,4h1v1h-1zM42,4h1v1h-1zM2,5h1v1h-1zM4,5h1v1h-1zM5,5h1v1h-1zM6,5h1v1h-1zM8,5h1v1h-1zM11,5h1v1h-1zM14,5h1v1h-1zM16,5h1v1h-1zM20,5h1v1h-1zM22,5h1v1h-1zM28,5h1v1h-1zM29,5h1v1h-1zM30,5h1v1h-1zM34,5h1v1h-1zM36,5h1v1h-1zM38,5h1v1h-1zM39,5h1v1h-1zM40,5h1v1h-1zM42,5h1v1h-1zM2,6h1v1h-1zM4,6h1v1h-1zM5,6h1v1h-1zM6,6h1v1h-1zM8,6h1v1h-1zM10,6h1v1h-1zM12,6h1v1h-1zM14,6h1v1h-1zM16,6h1v1h-1zM17,6h1v1h-1zM18,6h1v1h-1zM19,6h1v1h-1zM21,6h1v1h-1zM22,6h1v1h-1zM23,6h1v1h-1zM27,6h1v1h-1zM30,6h1v1h-1zM31,6h1v1h-1zM32,6h1v1h-1zM33,6h1v1h-1zM36,6h1v1h-1zM38,6h1v1h-1zM39,6h1v1h-1zM40,6h1v1h-1zM42,6h1v1h-1zM2,7h1v1h-1zM8,7h1v1h-1zM13,7h1v1h-1zM16,7h1v1h-1zM17,7h1v1h-1zM18,7h1v1h-1zM19,7h1v1h-1zM22,7h1v1h-1zM23,7h1v1h-1zM24,7h1v1h-1zM25,7h1v1h-1zM30,7h1v1h-1zM32,7h1v1h-1zM34,7h1v1h-1zM36,7h1v1h-1zM42,7h1v1h-1zM2,8h1v1h-1zM3,8h1v1h-1zM4,8h1v1h-1zM5,8h1v1h-1zM6,8h1v1h-1zM7,8h1v1h-1zM8,8h1v1h-1zM10,8h1v1h-1zM12,8h1v1h-1zM14,8h1v1h-1zM16,8h1v1h-1zM18,8h1v1h-1zM20,8h1v1h-1zM22,8h1v1h-1zM24,8h1v1h-1zM26,8h1v1h-1zM28,8h1v1h-1zM30,8h1v1h-1zM32,8h1v1h-1zM34,8h1v1h-1zM36,8h1v1h-1zM37,8h1v1h-1zM38,8h1v1h-1zM39,8h1v1h-1zM40,8h1v1h-1zM41,8h1v1h-1zM42,8h1v1h-1zM12,9h1v1h-1zM17,9h1v1h-1zM20,9h1v1h-1zM24,9h1v1h-1zM27,9h1v1h-1zM30,9h1v1h-1zM2,10h1v1h-1zM5,10h1v1h-1zM6,10h1v1h-1zM7,10h1v1h-1zM8,10h1v1h-1zM9,10h1v1h-1zM10,10h1v1h-1zM12,10h1v1h-1zM13,10h1v1h-1zM16,10h1v1h-1zM18,10h1v1h-1zM19,10h1v1h-1zM22,10h1v1h-1zM26,10h1v1h-1zM28,10h1v1h-1zM30,10h1v1h-1zM31,10h1v1h-1zM33,10h1v1h-1zM35,10h1v1h-1zM38,10h1v1h-1zM40,10h1v1h-1zM41,10h1v1h-1zM42,10h1v1h-1zM2,11h1v1h-1zM5,11h1v1h-1zM7,11h1v1h-1zM10,11h1v1h-1zM12,11h1v1h-1zM16,11h1v1h-1zM20,11h1v1h-1zM21,11h1v1h-1zM24,11h1v1h-1zM25,11h1v1h-1zM27,11h1v1h-1zM28,11h1v1h-1zM29,11h1v1h-1zM32,11h1v1h-1zM33,11h1v1h-1zM37,11h1v1h-1zM38,11h1v1h-1zM2,12h1v1h-1zM3,12h1v1h-1zM4,12h1v1h-1zM6,12h1v1h-1zM8,12h1v1h-1zM10,12h1v1h-1zM20,12h1v1h-1zM25,12h1v1h-1zM27,12h1v1h-1zM29,12h1v1h-1zM31,12h1v1h-1zM35,12h1v1h-1zM37,12h1v1h-1zM40,12h1v1h-1zM2,13h1v1h-1zM3,13h1v1h-1zM5,13h1v1h-1zM11,13h1v1h-1zM13,13h1v1h-1zM19,13h1v1h-1zM24,13h1v1h-1zM25,13h1v1h-1zM28,13h1v1h-1zM29,13h1v1h-1zM30,13h1v1h-1zM31,13h1v1h-1zM33,13h1v1h-1zM34,13h1v1h-1zM35,13h1v1h-1zM36,13h1v1h-1zM37,13h1v1h-1zM39,13h1v1h-1zM2,14h1v1h-1zM5,14h1v1h-1zM7,14h1v1h-1zM8,14h1v1h-1zM10,14h1v1h-1zM11,14h1v1h-1zM15,14h1v1h-1zM17,14h1v1h-1zM18,14h1v1h-1zM22,14h1v1h-1zM25,14h1v1h-1zM29,14h1v1h-1zM30,14h1v1h-1zM32,14h1v1h-1zM36,14h1v1h-1zM37,14h1v1h-1zM41,14h1v1h-1zM42,14h1v1h-1zM4,15h1v1h-1zM9,15h1v1h-1zM11,15h1v1h-1zM15,15h1v1h-1zM16,15h1v1h-1zM17,15h1v1h-1zM20,15h1v1h-1zM21,15h1v1h-1zM23,15h1v1h-1zM26,15h1v1h-1zM30,15h1v1h-1zM32,15h1v1h-1zM33,15h1v1h-1zM34,15h1v1h-1zM36,15h1v1h-1zM37,15h1v1h-1zM38,15h1v1h-1zM42,15h1v1h-1zM2,16h1v1h-1zM4,16h1v1h-1zM5,16h1v1h-1zM6,16h1v1h-1zM8,16h1v1h-1zM9,16h1v1h-1zM12,16h1v1h-1zM13,16h1v1h-1zM17,16h1v1h-1zM23,16h1v1h-1zM24,16h1v1h-1zM28,16h1v1h-1zM30,16h1v1h-1zM33,16h1v1h-1zM34,16h1v1h-1zM35,16h1v1h-1zM36,16h1v1h-1zM37,16h1v1h-1zM39,16h1v1h-1zM40,16h1v1h-1zM42,16h1v1h-1zM5,17h1v1h-1zM9,17h1v1h-1zM10,17h1v1h-1zM11,17h1v1h-1zM13,17h1v1h-1zM14,17h1v1h-1zM15,17h1v1h-1zM16,17h1v1h-1zM17,17h1v1h-1zM21,17h1v1h-1zM26,17h1v1h-1zM29,17h1v1h-1zM34,17h1v1h-1zM35,17h1v1h-1zM37,17h1v1h-1zM39,17h1v1h-1zM40,17h1v1h-1zM42,17h1v1h-1zM2,18h1v1h-1zM3,18h1v1h-1zM4,18h1v1h-1zM5,18h1v1h-1zM8,18h1v1h-1zM10,18h1v1h-1zM11,18h1v1h-1zM14,18h1v1h-1zM15,18h1v1h-1zM16,18h1v1h-1zM18,18h1v1h-1zM20,18h1v1h-1zM21,18h1v1h-1zM24,18h1v1h-1zM25,18h1v1h-1zM27,18h1v1h-1zM32,18h1v1h-1zM34,18h1v1h-1zM35,18h1v1h-1zM2,19h1v1h-1zM3,19h1v1h-1zM10,19h1v1h-1zM12,19h1v1h-1zM13,19h1v1h-1zM14,19h1v1h-1zM15,19h1v1h-1zM17,19h1v1h-1zM18,19h1v1h-1zM21,19h1v1h-1zM24,19h1v1h-1zM26,19h1v1h-1zM27,19h1v1h-1zM28,19h1v1h-1zM29,19h1v1h-1zM31,19h1v1h-1zM32,19h1v1h-1zM33,19h1v1h-1zM34,19h1v1h-1zM35,19h1v1h-1zM38,19h1v1h-1zM40,19h1v1h-1zM4,20h1v1h-1zM6,20h1v1h-1zM8,20h1v1h-1zM12,20h1v1h-1zM14,20h1v1h-1zM15,20h1v1h-1zM16,20h1v1h-1zM21,20h1v1h-1zM22,20h1v1h-1zM23,20h1v1h-1zM24,20h1v1h-1zM25,20h1v1h-1zM29,20h1v1h-1zM30,20h1v1h-1zM31,20h1v1h-1zM32,20h1v1h-1zM33,20h1v1h-1zM34,20h1v1h-1zM36,20h1v1h-1zM37,20h1v1h-1zM38,20h1v1h-1zM39,20h1v1h-1zM40,20h1v1h-1zM41,20h1v1h-1zM42,20h1v1h-1zM2,21h1v1h-1zM3,21h1v1h-1zM4,21h1v1h-1zM6,21h1v1h-1zM9,21h1v1h-1zM12,21h1v1h-1zM13,21h1v1h-1zM15,21h1v1h-1zM16,21h1v1h-1zM19,21h1v1h-1zM20,21h1v1h-1zM24,21h1v1h-1zM26,21h1v1h-1zM28,21h1v1h-1zM30,21h1v1h-1zM34,21h1v1h-1zM36,21h1v1h-1zM38,21h1v1h-1zM40,21h1v1h-1zM42,21h1v1h-1zM2,22h1v1h-1zM3,22h1v1h-1zM8,22h1v1h-1zM10,22h1v1h-1zM11,22h1v1h-1zM14,22h1v1h-1zM15,22h1v1h-1zM17,22h1v1h-1zM18,22h1v1h-1zM21,22h1v1h-1zM23,22h1v1h-1zM24,22h1v1h-1zM25,22h1v1h-1zM26,22h1v1h-1zM27,22h1v1h-1zM28,22h1v1h-1zM30,22h1v1h-1zM32,22h1v1h-1zM33,22h1v1h-1zM36,22h1v1h-1zM37,22h1v1h-1zM40,22h1v1h-1zM41,22h1v1h-1zM42,22h1v1h-1zM2,23h1v1h-1zM10,23h1v1h-1zM19,23h1v1h-1zM20,23h1v1h-1zM21,23h1v1h-1zM22,23h1v1h-1zM23,23h1v1h-1zM25,23h1v1h-1zM28,23h1v1h-1zM29,23h1v1h-1zM33,23h1v1h-1zM38,23h1v1h-1zM40,23h1v1h-1zM3,24h1v1h-1zM5,24h1v1h-1zM7,24h1v1h-1zM8,24h1v1h-1zM11,24h1v1h-1zM12,24h1v1h-1zM13,24h1v1h-1zM15,24h1v1h-1zM16,24h1v1h-1zM19,24h1v1h-1zM20,24h1v1h-1zM23,24h1v1h-1zM25,24h1v1h-1zM26,24h1v1h-1zM28,24h1v1h-1zM29,24h1v1h-1zM31,24h1v1h-1zM32,24h1v1h-1zM34,24h1v1h-1zM38,24h1v1h-1zM39,24h1v1h-1zM2,25h1v1h-1zM3,25h1v1h-1zM4,25h1v1h-1zM9,25h1v1h-1zM16,25h1v1h-1zM17,25h1v1h-1zM18,25h1v1h-1zM19,25h1v1h-1zM20,25h1v1h-1zM24,25h1v1h-1zM28,25h1v1h-1zM31,25h1v1h-1zM33,25h1v1h-1zM38,25h1v1h-1zM39,25h1v1h-1zM2,26h1v1h-1zM4,26h1v1h-1zM6,26h1v1h-1zM7,26h1v1h-1zM8,26h1v1h-1zM10,26h1v1h-1zM12,26h1v1h-1zM13,26h1v1h-1zM15,26h1v1h-1zM16,26h1v1h-1zM22,26h1v1h-1zM24,26h1v1h-1zM25,26h1v1h-1zM26,26h1v1h-1zM33,26h1v1h-1zM34,26h1v1h-1zM36,26h1v1h-1zM39,26h1v1h-1zM42,26h1v1h-1zM2,27h1v1h-1zM3,27h1v1h-1zM4,27h1v1h-1zM6,27h1v1h-1zM7,27h1v1h-1zM10,27h1v1h-1zM11,27h1v1h-1zM12,27h1v1h-1zM13,27h1v1h-1zM14,27h1v1h-1zM17,27h1v1h-1zM23,27h1v1h-1zM25,27h1v1h-1zM28,27h1v1h-1zM29,27h1v1h-1zM30,27h1v1h-1zM31,27h1v1h-1zM32,27h1v1h-1zM34,27h1v1h-1zM36,27h1v1h-1zM38,27h1v1h-1zM40,27h1v1h-1zM42,27h1v1h-1zM4,28h1v1h-1zM5,28h1v1h-1zM7,28h1v1h-1zM8,28h1v1h-1zM10,28h1v1h-1zM13,28h1v1h-1zM15,28h1v1h-1zM17,28h1v1h-1zM18,28h1v1h-1zM19,28h1v1h-1zM21,28h1v1h-1zM22,28h1v1h-1zM23,28h1v1h-1zM24,28h1v1h-1zM26,28h1v1h-1zM27,28h1v1h-1zM29,28h1v1h-1zM30,28h1v1h-1zM33,28h1v1h-1zM34,28h1v1h-1zM36,28h1v1h-1zM39,28h1v1h-1zM42,28h1v1h-1zM3,29h1v1h-1zM4,29h1v1h-1zM9,29h1v1h-1zM10,29h1v1h-1zM12,29h1v1h-1zM14,29h1v1h-1zM21,29h1v1h-1zM29,29h1v1h-1zM30,29h1v1h-1zM33,29h1v1h-1zM36,29h1v1h-1zM38,29h1v1h-1zM39,29h1v1h-1zM40,29h1v1h-1zM41,29h1v1h-1zM42,29h1v1h-1zM8,30h1v1h-1zM9,30h1v1h-1zM10,30h1v1h-1zM14,30h1v1h-1zM15,30h1v1h-1zM16,30h1v1h-1zM18,30h1v1h-1zM24,30h1v1h-1zM25,30h1v1h-1zM26,30h1v1h-1zM27,30h1v1h-1zM28,30h1v1h-1zM29,30h1v1h-1zM30,30h1v1h-1zM33,30h1v1h-1zM34,30h1v1h-1zM35,30h1v1h-1zM37,30h1v1h-1zM39,30h1v1h-1zM41,30h1v1h-1zM42,30h1v1h-1zM2,31h1v1h-1zM3,31h1v1h-1zM4,31h1v1h-1zM5,31h1v1h-1zM6,31h1v1h-1zM7,31h1v1h-1zM10,31h1v1h-1zM14,31h1v1h-1zM19,31h1v1h-1zM20,31h1v1h-1zM24,31h1v1h-1zM25,31h1v1h-1zM27,31h1v1h-1zM30,31h1v1h-1zM32,31h1v1h-1zM34,31h1v1h-1zM36,31h1v1h-1zM37,31h1v1h-1zM38,31h1v1h-1zM40,31h1v1h-1zM41,31h1v1h-1zM2,32h1v1h-1zM3,32h1v1h-1zM4,32h1v1h-1zM6,32h1v1h-1zM7,32h1v1h-1zM8,32h1v1h-1zM9,32h1v1h-1zM10,32h1v1h-1zM11,32h1v1h-1zM14,32h1v1h-1zM18,32h1v1h-1zM20,32h1v1h-1zM21,32h1v1h-1zM23,32h1v1h-1zM26,32h1v1h-1zM27,32h1v1h-1zM28,32h1v1h-1zM29,32h1v1h-1zM31,32h1v1h-1zM34,32h1v1h-1zM35,32h1v1h-1zM40,32h1v1h-1zM42,32h1v1h-1zM2,33h1v1h-1zM3,33h1v1h-1zM4,33h1v1h-1zM7,33h1v1h-1zM9,33h1v1h-1zM10,33h1v1h-1zM11,33h1v1h-1zM13,33h1v1h-1zM14,33h1v1h-1zM17,33h1v1h-1zM20,33h1v1h-1zM21,33h1v1h-1zM22,33h1v1h-1zM25,33h1v1h-1zM27,33h1v1h-1zM36,33h1v1h-1zM37,33h1v1h-1zM40,33h1v1h-1zM41,33h1v1h-1zM2,34h1v1h-1zM3,34h1v1h-1zM4,34h1v1h-1zM5,34h1v1h-1zM6,34h1v1h-1zM7,34h1v1h-1zM8,34h1v1h-1zM9,34h1v1h-1zM10,34h1v1h-1zM13,34h1v1h-1zM14,34h1v1h-1zM16,34h1v1h-1zM18,34h1v1h-1zM19,34h1v1h-1zM20,34h1v1h-1zM21,34h1v1h-1zM24,34h1v1h-1zM25,34h1v1h-1zM27,34h1v1h-1zM28,34h1v1h-1zM29,34h1v1h-1zM30,34h1v1h-1zM31,34h1v1h-1zM34,34h1v1h-1zM35,34h1v1h-1zM36,34h1v1h-1zM37,34h1v1h-1zM38,34h1v1h-1zM39,34h1v1h-1zM40,34h1v1h-1zM41,34h1v1h-1zM10,35h1v1h-1zM12,35h1v1h-1zM14,35h1v1h-1zM21,35h1v1h-1zM23,35h1v1h-1zM25,35h1v1h-1zM26,35h1v1h-1zM28,35h1v1h-1zM29,35h1v1h-1zM31,35h1v1h-1zM32,35h1v1h-1zM33,35h1v1h-1zM34,35h1v1h-1zM38,35h1v1h-1zM39,35h1v1h-1zM40,35h1v1h-1zM2,36h1v1h-1zM3,36h1v1h-1zM4,36h1v1h-1zM5,36h1v1h-1zM6,36h1v1h-1zM7,36h1v1h-1zM8,36h1v1h-1zM10,36h1v1h-1zM11,36h1v1h-1zM12,36h1v1h-1zM14,36h1v1h-1zM16,36h1v1h-1zM18,36h1v1h-1zM19,36h1v1h-1zM20,36h1v1h-1zM22,36h1v1h-1zM24,36h1v1h-1zM25,36h1v1h-1zM26,36h1v1h-1zM28,36h1v1h-1zM29,36h1v1h-1zM30,36h1v1h-1zM33,36h1v1h-1zM34,36h1v1h-1zM36,36h1v1h-1zM38,36h1v1h-1zM39,36h1v1h-1zM40,36h1v1h-1zM2,37h1v1h-1zM8,37h1v1h-1zM10,37h1v1h-1zM11,37h1v1h-1zM12,37h1v1h-1zM13,37h1v1h-1zM14,37h1v1h-1zM16,37h1v1h-1zM19,37h1v1h-1zM23,37h1v1h-1zM24,37h1v1h-1zM25,37h1v1h-1zM26,37h1v1h-1zM28,37h1v1h-1zM30,37h1v1h-1zM32,37h1v1h-1zM33,37h1v1h-1zM34,37h1v1h-1zM38,37h1v1h-1zM39,37h1v1h-1zM41,37h1v1h-1zM42,37h1v1h-1zM2,38h1v1h-1zM4,38h1v1h-1zM5,38h1v1h-1zM6,38h1v1h-1zM8,38h1v1h-1zM10,38h1v1h-1zM11,38h1v1h-1zM12,38h1v1h-1zM13,38h1v1h-1zM14,38h1v1h-1zM15,38h1v1h-1zM17,38h1v1h-1zM18,38h1v1h-1zM19,38h1v1h-1zM20,38h1v1h-1zM23,38h1v1h-1zM25,38h1v1h-1zM27,38h1v1h-1zM28,38h1v1h-1zM29,38h1v1h-1zM30,38h1v1h-1zM31,38h1v1h-1zM33,38h1v1h-1zM34,38h1v1h-1zM35,38h1v1h-1zM36,38h1v1h-1zM37,38h1v1h-1zM38,38h1v1h-1zM39,38h1v1h-1zM42,38h1v1h-1zM2,39h1v1h-1zM4,39h1v1h-1zM5,39h1v1h-1zM6,39h1v1h-1zM8,39h1v1h-1zM10,39h1v1h-1zM11,39h1v1h-1zM13,39h1v1h-1zM16,39h1v1h-1zM17,39h1v1h-1zM19,39h1v1h-1zM23,39h1v1h-1zM25,39h1v1h-1zM29,39h1v1h-1zM30,39h1v1h-1zM31,39h1v1h-1zM32,39h1v1h-1zM37,39h1v1h-1zM40,39h1v1h-1zM41,39h1v1h-1zM2,40h1v1h-1zM4,40h1v1h-1zM5,40h1v1h-1zM6,40h1v1h-1zM8,40h1v1h-1zM11,40h1v1h-1zM15,40h1v1h-1zM16,40h1v1h-1zM18,40h1v1h-1zM19,40h1v1h-1zM21,40h1v1h-1zM28,40h1v1h-1zM29,40h1v1h-1zM34,40h1v1h-1zM35,40h1v1h-1zM37,40h1v1h-1zM38,40h1v1h-1zM39,40h1v1h-1zM42,40h1v1h-1zM2,41h1v1h-1zM8,41h1v1h-1zM12,41h1v1h-1zM16,41h1v1h-1zM18,41h1v1h-1zM19,41h1v1h-1zM21,41h1v1h-1zM24,41h1v1h-1zM25,41h1v1h-1zM28,41h1v1h-1zM30,41h1v1h-1zM33,41h1v1h-1zM35,41h1v1h-1zM38,41h1v1h-1zM39,41h1v1h-1zM40,41h1v1h-1zM42,41h1v1h-1zM2,42h1v1h-1zM3,42h1v1h-1zM4,42h1v1h-1zM5,42h1v1h-1zM6,42h1v1h-1zM7,42h1v1h-1zM8,42h1v1h-1zM10,42h1v1h-1zM12,42h1v1h-1zM17,42h1v1h-1zM18,42h1v1h-1zM19,42h1v1h-1zM20,42h1v1h-1zM22,42h1v1h-1zM24,42h1v1h-1zM27,42h1v1h-1zM29,42h1v1h-1zM33,42h1v1h-1zM34,42h1v1h-1zM36,42h1v1h-1zM38,42h1v1h-1z" fill="#e0e6ed"/>
  </g>
  <!-- Text -->
  <text x="152" y="36" fill="url(#accent)" font-family="monospace" font-size="11" font-weight="bold">FORGE-ALLOY</text>
  <text x="152" y="54" fill="#8a92a5" font-family="monospace" font-size="9">attestation chain</text>
  <text x="152" y="78" fill="#e0e6ed" font-family="monospace" font-size="8">959d8f0e29bcde1d</text>
  <text x="152" y="96" fill="#5a6a7a" font-family="monospace" font-size="8">115 commits</text>
  <text x="152" y="118" fill="#00ffc8" font-family="monospace" font-size="8">scan to verify</text>
  <!-- Bottom bar -->
  <rect x="0" y="148" width="280" height="12" rx="0" fill="rgba(0,212,255,0.06)"/>
  <text x="140" y="157" fill="#5a6a7a" font-family="monospace" font-size="7" text-anchor="middle">git is the merkle chain</text>
</svg>