<svg xmlns="http://www.w3.org/2000/svg" width="280" height="160" viewBox="0 0 280 160">
  <defs>
    <linearGradient id="bg" x1="0" y1="0" x2="1" y2="1">
      <stop offset="0%" stop-color="#0a1520"/>
      <stop offset="100%" stop-color="#0d1f2d"/>
    </linearGradient>
    <linearGradient id="accent" x1="0" y1="0" x2="1" y2="0">
      <stop offset="0%" stop-color="#00d4ff"/>
      <stop offset="100%" stop-color="#00ffc8"/>
    </linearGradient>
  </defs>
  <rect width="280" height="160" rx="8" fill="url(#bg)" stroke="#1a2a3a" stroke-width="1"/>
  <!-- QR code -->
  <g transform="translate(16,16) scale(2.6667)">
    <path d="M2,2h1v1h-1zM3,2h1v1h-1zM4,2h1v1h-1zM5,2h1v1h-1zM6,2h1v1h-1zM7,2h1v1h-1zM8,2h1v1h-1zM10,2h1v1h-1zM11,2h1v1h-1zM13,2h1v1h-1zM15,2h1v1h-1zM20,2h1v1h-1zM23,2h1v1h-1zM25,2h1v1h-1zM27,2h1v1h-1zM28,2h1v1h-1zM29,2h1v1h-1zM30,2h1v1h-1zM31,2h1v1h-1zM32,2h1v1h-1zM36,2h1v1h-1zM37,2h1v1h-1zM38,2h1v1h-1zM39,2h1v1h-1zM40,2h1v1h-1zM41,2h1v1h-1zM42,2h1v1h-1zM2,3h1v1h-1zM8,3h1v1h-1zM15,3h1v1h-1zM17,3h1v1h-1zM20,3h1v1h-1zM21,3h1v1h-1zM23,3h1v1h-1zM24,3h1v1h-1zM27,3h1v1h-1zM28,3h1v1h-1zM31,3h1v1h-1zM33,3h1v1h-1zM36,3h1v1h-1zM42,3h1v1h-1zM2,4h1v1h-1zM4,4h1v1h-1zM5,4h1v1h-1zM6,4h1v1h-1zM8,4h1v1h-1zM13,4h1v1h-1zM14,4h1v1h-1zM16,4h1v1h-1zM17,4h1v1h-1zM18,4h1v1h-1zM19,4h1v1h-1zM20,4h1v1h-1zM21,4h1v1h-1zM24,4h1v1h-1zM25,4h1v1h-1zM26,4h1v1h-1zM28,4h1v1h-1zM29,4h1v1h-1zM33,4h1v1h-1zM34,4h1v1h-1zM36,4h1v1h-1zM38,4h1v1h-1zM39,4h1v1h-1zM40,4h1v1h-1zM42,4h1v1h-1zM2,5h1v1h-1zM4,5h1v1h-1zM5,5h1v1h-1zM6,5h1v1h-1zM8,5h1v1h-1zM10,5h1v1h-1zM11,5h1v1h-1zM12,5h1v1h-1zM16,5h1v1h-1zM19,5h1v1h-1zM23,5h1v1h-1zM25,5h1v1h-1zM26,5h1v1h-1zM30,5h1v1h-1zM31,5h1v1h-1zM32,5h1v1h-1zM36,5h1v1h-1zM38,5h1v1h-1zM39,5h1v1h-1zM40,5h1v1h-1zM42,5h1v1h-1zM2,6h1v1h-1zM4,6h1v1h-1zM5,6h1v1h-1zM6,6h1v1h-1zM8,6h1v1h-1zM10,6h1v1h-1zM11,6h1v1h-1zM13,6h1v1h-1zM14,6h1v1h-1zM15,6h1v1h-1zM18,6h1v1h-1zM22,6h1v1h-1zM25,6h1v1h-1zM29,6h1v1h-1zM30,6h1v1h-1zM32,6h1v1h-1zM36,6h1v1h-1zM38,6h1v1h-1zM39,6h1v1h-1zM40,6h1v1h-1zM42,6h1v1h-1zM2,7h1v1h-1zM8,7h1v1h-1zM10,7h1v1h-1zM12,7h1v1h-1zM15,7h1v1h-1zM17,7h1v1h-1zM21,7h1v1h-1zM23,7h1v1h-1zM27,7h1v1h-1zM28,7h1v1h-1zM31,7h1v1h-1zM32,7h1v1h-1zM33,7h1v1h-1zM36,7h1v1h-1zM42,7h1v1h-1zM2,8h1v1h-1zM3,8h1v1h-1zM4,8h1v1h-1zM5,8h1v1h-1zM6,8h1v1h-1zM7,8h1v1h-1zM8,8h1v1h-1zM10,8h1v1h-1zM12,8h1v1h-1zM14,8h1v1h-1zM16,8h1v1h-1zM18,8h1v1h-1zM20,8h1v1h-1zM22,8h1v1h-1zM24,8h1v1h-1zM26,8h1v1h-1zM28,8h1v1h-1zM30,8h1v1h-1zM32,8h1v1h-1zM34,8h1v1h-1zM36,8h1v1h-1zM37,8h1v1h-1zM38,8h1v1h-1zM39,8h1v1h-1zM40,8h1v1h-1zM41,8h1v1h-1zM42,8h1v1h-1zM10,9h1v1h-1zM11,9h1v1h-1zM13,9h1v1h-1zM14,9h1v1h-1zM15,9h1v1h-1zM16,9h1v1h-1zM18,9h1v1h-1zM19,9h1v1h-1zM21,9h1v1h-1zM22,9h1v1h-1zM23,9h1v1h-1zM25,9h1v1h-1zM26,9h1v1h-1zM28,9h1v1h-1zM29,9h1v1h-1zM31,9h1v1h-1zM32,9h1v1h-1zM33,9h1v1h-1zM34,9h1v1h-1zM2,10h1v1h-1zM6,10h1v1h-1zM8,10h1v1h-1zM9,10h1v1h-1zM10,10h1v1h-1zM11,10h1v1h-1zM13,10h1v1h-1zM17,10h1v1h-1zM19,10h1v1h-1zM23,10h1v1h-1zM24,10h1v1h-1zM26,10h1v1h-1zM29,10h1v1h-1zM31,10h1v1h-1zM33,10h1v1h-1zM34,10h1v1h-1zM35,10h1v1h-1zM36,10h1v1h-1zM37,10h1v1h-1zM38,10h1v1h-1zM39,10h1v1h-1zM42,10h1v1h-1zM2,11h1v1h-1zM5,11h1v1h-1zM9,11h1v1h-1zM10,11h1v1h-1zM15,11h1v1h-1zM16,11h1v1h-1zM18,11h1v1h-1zM20,11h1v1h-1zM25,11h1v1h-1zM28,11h1v1h-1zM29,11h1v1h-1zM30,11h1v1h-1zM32,11h1v1h-1zM36,11h1v1h-1zM37,11h1v1h-1zM38,11h1v1h-1zM39,11h1v1h-1zM41,11h1v1h-1zM42,11h1v1h-1zM2,12h1v1h-1zM4,12h1v1h-1zM6,12h1v1h-1zM7,12h1v1h-1zM8,12h1v1h-1zM10,12h1v1h-1zM12,12h1v1h-1zM14,12h1v1h-1zM16,12h1v1h-1zM18,12h1v1h-1zM22,12h1v1h-1zM24,12h1v1h-1zM25,12h1v1h-1zM26,12h1v1h-1zM27,12h1v1h-1zM28,12h1v1h-1zM29,12h1v1h-1zM30,12h1v1h-1zM31,12h1v1h-1zM32,12h1v1h-1zM34,12h1v1h-1zM36,12h1v1h-1zM37,12h1v1h-1zM38,12h1v1h-1zM41,12h1v1h-1zM42,12h1v1h-1zM2,13h1v1h-1zM5,13h1v1h-1zM6,13h1v1h-1zM7,13h1v1h-1zM10,13h1v1h-1zM13,13h1v1h-1zM14,13h1v1h-1zM17,13h1v1h-1zM19,13h1v1h-1zM20,13h1v1h-1zM23,13h1v1h-1zM24,13h1v1h-1zM25,13h1v1h-1zM26,13h1v1h-1zM28,13h1v1h-1zM30,13h1v1h-1zM31,13h1v1h-1zM32,13h1v1h-1zM33,13h1v1h-1zM34,13h1v1h-1zM35,13h1v1h-1zM37,13h1v1h-1zM38,13h1v1h-1zM39,13h1v1h-1zM41,13h1v1h-1zM42,13h1v1h-1zM4,14h1v1h-1zM6,14h1v1h-1zM8,14h1v1h-1zM10,14h1v1h-1zM12,14h1v1h-1zM13,14h1v1h-1zM15,14h1v1h-1zM19,14h1v1h-1zM22,14h1v1h-1zM23,14h1v1h-1zM24,14h1v1h-1zM31,14h1v1h-1zM32,14h1v1h-1zM35,14h1v1h-1zM42,14h1v1h-1zM4,15h1v1h-1zM9,15h1v1h-1zM11,15h1v1h-1zM16,15h1v1h-1zM17,15h1v1h-1zM20,15h1v1h-1zM21,15h1v1h-1zM26,15h1v1h-1zM30,15h1v1h-1zM32,15h1v1h-1zM33,15h1v1h-1zM34,15h1v1h-1zM36,15h1v1h-1zM37,15h1v1h-1zM38,15h1v1h-1zM42,15h1v1h-1zM3,16h1v1h-1zM4,16h1v1h-1zM5,16h1v1h-1zM6,16h1v1h-1zM7,16h1v1h-1zM8,16h1v1h-1zM11,16h1v1h-1zM12,16h1v1h-1zM13,16h1v1h-1zM15,16h1v1h-1zM21,16h1v1h-1zM23,16h1v1h-1zM24,16h1v1h-1zM25,16h1v1h-1zM26,16h1v1h-1zM27,16h1v1h-1zM28,16h1v1h-1zM30,16h1v1h-1zM31,16h1v1h-1zM32,16h1v1h-1zM34,16h1v1h-1zM35,16h1v1h-1zM36,16h1v1h-1zM38,16h1v1h-1zM40,16h1v1h-1zM42,16h1v1h-1zM2,17h1v1h-1zM4,17h1v1h-1zM7,17h1v1h-1zM9,17h1v1h-1zM13,17h1v1h-1zM15,17h1v1h-1zM18,17h1v1h-1zM19,17h1v1h-1zM20,17h1v1h-1zM21,17h1v1h-1zM22,17h1v1h-1zM23,17h1v1h-1zM25,17h1v1h-1zM28,17h1v1h-1zM31,17h1v1h-1zM32,17h1v1h-1zM38,17h1v1h-1zM39,17h1v1h-1zM41,17h1v1h-1zM42,17h1v1h-1zM2,18h1v1h-1zM4,18h1v1h-1zM7,18h1v1h-1zM8,18h1v1h-1zM9,18h1v1h-1zM10,18h1v1h-1zM11,18h1v1h-1zM13,18h1v1h-1zM14,18h1v1h-1zM15,18h1v1h-1zM17,18h1v1h-1zM18,18h1v1h-1zM19,18h1v1h-1zM20,18h1v1h-1zM23,18h1v1h-1zM26,18h1v1h-1zM29,18h1v1h-1zM31,18h1v1h-1zM32,18h1v1h-1zM33,18h1v1h-1zM34,18h1v1h-1zM37,18h1v1h-1zM39,18h1v1h-1zM41,18h1v1h-1zM2,19h1v1h-1zM4,19h1v1h-1zM6,19h1v1h-1zM7,19h1v1h-1zM9,19h1v1h-1zM11,19h1v1h-1zM12,19h1v1h-1zM13,19h1v1h-1zM15,19h1v1h-1zM18,19h1v1h-1zM19,19h1v1h-1zM22,19h1v1h-1zM24,19h1v1h-1zM25,19h1v1h-1zM29,19h1v1h-1zM30,19h1v1h-1zM32,19h1v1h-1zM35,19h1v1h-1zM36,19h1v1h-1zM37,19h1v1h-1zM38,19h1v1h-1zM39,19h1v1h-1zM42,19h1v1h-1zM2,20h1v1h-1zM3,20h1v1h-1zM6,20h1v1h-1zM8,20h1v1h-1zM9,20h1v1h-1zM10,20h1v1h-1zM14,20h1v1h-1zM16,20h1v1h-1zM20,20h1v1h-1zM22,20h1v1h-1zM23,20h1v1h-1zM24,20h1v1h-1zM25,20h1v1h-1zM26,20h1v1h-1zM27,20h1v1h-1zM28,20h1v1h-1zM29,20h1v1h-1zM30,20h1v1h-1zM31,20h1v1h-1zM36,20h1v1h-1zM37,20h1v1h-1zM41,20h1v1h-1zM42,20h1v1h-1zM5,21h1v1h-1zM7,21h1v1h-1zM10,21h1v1h-1zM11,21h1v1h-1zM12,21h1v1h-1zM13,21h1v1h-1zM15,21h1v1h-1zM17,21h1v1h-1zM18,21h1v1h-1zM21,21h1v1h-1zM22,21h1v1h-1zM23,21h1v1h-1zM25,21h1v1h-1zM27,21h1v1h-1zM29,21h1v1h-1zM31,21h1v1h-1zM32,21h1v1h-1zM33,21h1v1h-1zM35,21h1v1h-1zM37,21h1v1h-1zM39,21h1v1h-1zM41,21h1v1h-1zM2,22h1v1h-1zM3,22h1v1h-1zM4,22h1v1h-1zM5,22h1v1h-1zM6,22h1v1h-1zM8,22h1v1h-1zM10,22h1v1h-1zM12,22h1v1h-1zM13,22h1v1h-1zM14,22h1v1h-1zM15,22h1v1h-1zM16,22h1v1h-1zM21,22h1v1h-1zM22,22h1v1h-1zM25,22h1v1h-1zM26,22h1v1h-1zM27,22h1v1h-1zM29,22h1v1h-1zM32,22h1v1h-1zM33,22h1v1h-1zM34,22h1v1h-1zM35,22h1v1h-1zM37,22h1v1h-1zM2,23h1v1h-1zM3,23h1v1h-1zM6,23h1v1h-1zM9,23h1v1h-1zM12,23h1v1h-1zM15,23h1v1h-1zM18,23h1v1h-1zM19,23h1v1h-1zM20,23h1v1h-1zM22,23h1v1h-1zM23,23h1v1h-1zM24,23h1v1h-1zM25,23h1v1h-1zM27,23h1v1h-1zM28,23h1v1h-1zM29,23h1v1h-1zM30,23h1v1h-1zM36,23h1v1h-1zM38,23h1v1h-1zM39,23h1v1h-1zM40,23h1v1h-1zM42,23h1v1h-1zM5,24h1v1h-1zM6,24h1v1h-1zM7,24h1v1h-1zM8,24h1v1h-1zM10,24h1v1h-1zM11,24h1v1h-1zM13,24h1v1h-1zM14,24h1v1h-1zM15,24h1v1h-1zM18,24h1v1h-1zM19,24h1v1h-1zM22,24h1v1h-1zM23,24h1v1h-1zM24,24h1v1h-1zM25,24h1v1h-1zM29,24h1v1h-1zM30,24h1v1h-1zM31,24h1v1h-1zM36,24h1v1h-1zM38,24h1v1h-1zM39,24h1v1h-1zM42,24h1v1h-1zM4,25h1v1h-1zM6,25h1v1h-1zM7,25h1v1h-1zM10,25h1v1h-1zM11,25h1v1h-1zM14,25h1v1h-1zM16,25h1v1h-1zM18,25h1v1h-1zM19,25h1v1h-1zM23,25h1v1h-1zM24,25h1v1h-1zM26,25h1v1h-1zM28,25h1v1h-1zM29,25h1v1h-1zM31,25h1v1h-1zM32,25h1v1h-1zM33,25h1v1h-1zM35,25h1v1h-1zM37,25h1v1h-1zM39,25h1v1h-1zM41,25h1v1h-1zM2,26h1v1h-1zM3,26h1v1h-1zM4,26h1v1h-1zM6,26h1v1h-1zM8,26h1v1h-1zM9,26h1v1h-1zM10,26h1v1h-1zM11,26h1v1h-1zM15,26h1v1h-1zM16,26h1v1h-1zM17,26h1v1h-1zM18,26h1v1h-1zM19,26h1v1h-1zM22,26h1v1h-1zM23,26h1v1h-1zM26,26h1v1h-1zM29,26h1v1h-1zM30,26h1v1h-1zM31,26h1v1h-1zM33,26h1v1h-1zM34,26h1v1h-1zM35,26h1v1h-1zM37,26h1v1h-1zM39,26h1v1h-1zM41,26h1v1h-1zM3,27h1v1h-1zM6,27h1v1h-1zM9,27h1v1h-1zM11,27h1v1h-1zM12,27h1v1h-1zM13,27h1v1h-1zM14,27h1v1h-1zM17,27h1v1h-1zM23,27h1v1h-1zM25,27h1v1h-1zM28,27h1v1h-1zM29,27h1v1h-1zM30,27h1v1h-1zM31,27h1v1h-1zM32,27h1v1h-1zM34,27h1v1h-1zM36,27h1v1h-1zM38,27h1v1h-1zM40,27h1v1h-1zM41,27h1v1h-1zM42,27h1v1h-1zM4,28h1v1h-1zM5,28h1v1h-1zM6,28h1v1h-1zM8,28h1v1h-1zM9,28h1v1h-1zM14,28h1v1h-1zM17,28h1v1h-1zM18,28h1v1h-1zM20,28h1v1h-1zM22,28h1v1h-1zM23,28h1v1h-1zM24,28h1v1h-1zM25,28h1v1h-1zM29,28h1v1h-1zM30,28h1v1h-1zM31,28h1v1h-1zM32,28h1v1h-1zM34,28h1v1h-1zM35,28h1v1h-1zM36,28h1v1h-1zM37,28h1v1h-1zM38,28h1v1h-1zM41,28h1v1h-1zM42,28h1v1h-1zM3,29h1v1h-1zM6,29h1v1h-1zM11,29h1v1h-1zM12,29h1v1h-1zM13,29h1v1h-1zM16,29h1v1h-1zM17,29h1v1h-1zM19,29h1v1h-1zM20,29h1v1h-1zM21,29h1v1h-1zM22,29h1v1h-1zM23,29h1v1h-1zM25,29h1v1h-1zM26,29h1v1h-1zM28,29h1v1h-1zM30,29h1v1h-1zM31,29h1v1h-1zM32,29h1v1h-1zM33,29h1v1h-1zM34,29h1v1h-1zM36,29h1v1h-1zM37,29h1v1h-1zM39,29h1v1h-1zM41,29h1v1h-1zM42,29h1v1h-1zM2,30h1v1h-1zM4,30h1v1h-1zM5,30h1v1h-1zM6,30h1v1h-1zM8,30h1v1h-1zM10,30h1v1h-1zM11,30h1v1h-1zM13,30h1v1h-1zM14,30h1v1h-1zM16,30h1v1h-1zM17,30h1v1h-1zM19,30h1v1h-1zM21,30h1v1h-1zM23,30h1v1h-1zM24,30h1v1h-1zM26,30h1v1h-1zM28,30h1v1h-1zM30,30h1v1h-1zM31,30h1v1h-1zM34,30h1v1h-1zM41,30h1v1h-1zM2,31h1v1h-1zM3,31h1v1h-1zM5,31h1v1h-1zM7,31h1v1h-1zM9,31h1v1h-1zM11,31h1v1h-1zM12,31h1v1h-1zM16,31h1v1h-1zM20,31h1v1h-1zM21,31h1v1h-1zM22,31h1v1h-1zM28,31h1v1h-1zM31,31h1v1h-1zM32,31h1v1h-1zM33,31h1v1h-1zM38,31h1v1h-1zM39,31h1v1h-1zM41,31h1v1h-1zM42,31h1v1h-1zM6,32h1v1h-1zM7,32h1v1h-1zM8,32h1v1h-1zM11,32h1v1h-1zM12,32h1v1h-1zM15,32h1v1h-1zM16,32h1v1h-1zM19,32h1v1h-1zM20,32h1v1h-1zM22,32h1v1h-1zM23,32h1v1h-1zM29,32h1v1h-1zM31,32h1v1h-1zM32,32h1v1h-1zM33,32h1v1h-1zM35,32h1v1h-1zM38,32h1v1h-1zM39,32h1v1h-1zM42,32h1v1h-1zM5,33h1v1h-1zM6,33h1v1h-1zM12,33h1v1h-1zM16,33h1v1h-1zM17,33h1v1h-1zM18,33h1v1h-1zM19,33h1v1h-1zM20,33h1v1h-1zM23,33h1v1h-1zM26,33h1v1h-1zM28,33h1v1h-1zM29,33h1v1h-1zM30,33h1v1h-1zM31,33h1v1h-1zM32,33h1v1h-1zM33,33h1v1h-1zM34,33h1v1h-1zM35,33h1v1h-1zM38,33h1v1h-1zM39,33h1v1h-1zM42,33h1v1h-1zM2,34h1v1h-1zM3,34h1v1h-1zM7,34h1v1h-1zM8,34h1v1h-1zM9,34h1v1h-1zM13,34h1v1h-1zM15,34h1v1h-1zM16,34h1v1h-1zM17,34h1v1h-1zM19,34h1v1h-1zM21,34h1v1h-1zM23,34h1v1h-1zM25,34h1v1h-1zM27,34h1v1h-1zM31,34h1v1h-1zM34,34h1v1h-1zM35,34h1v1h-1zM36,34h1v1h-1zM37,34h1v1h-1zM38,34h1v1h-1zM39,34h1v1h-1zM42,34h1v1h-1zM10,35h1v1h-1zM12,35h1v1h-1zM14,35h1v1h-1zM16,35h1v1h-1zM18,35h1v1h-1zM20,35h1v1h-1zM22,35h1v1h-1zM23,35h1v1h-1zM24,35h1v1h-1zM25,35h1v1h-1zM26,35h1v1h-1zM27,35h1v1h-1zM28,35h1v1h-1zM29,35h1v1h-1zM30,35h1v1h-1zM31,35h1v1h-1zM32,35h1v1h-1zM34,35h1v1h-1zM38,35h1v1h-1zM40,35h1v1h-1zM42,35h1v1h-1zM2,36h1v1h-1zM3,36h1v1h-1zM4,36h1v1h-1zM5,36h1v1h-1zM6,36h1v1h-1zM7,36h1v1h-1zM8,36h1v1h-1zM10,36h1v1h-1zM12,36h1v1h-1zM14,36h1v1h-1zM16,36h1v1h-1zM17,36h1v1h-1zM18,36h1v1h-1zM19,36h1v1h-1zM22,36h1v1h-1zM25,36h1v1h-1zM29,36h1v1h-1zM32,36h1v1h-1zM33,36h1v1h-1zM34,36h1v1h-1zM36,36h1v1h-1zM38,36h1v1h-1zM39,36h1v1h-1zM42,36h1v1h-1zM2,37h1v1h-1zM8,37h1v1h-1zM11,37h1v1h-1zM13,37h1v1h-1zM14,37h1v1h-1zM18,37h1v1h-1zM19,37h1v1h-1zM20,37h1v1h-1zM21,37h1v1h-1zM22,37h1v1h-1zM24,37h1v1h-1zM25,37h1v1h-1zM28,37h1v1h-1zM29,37h1v1h-1zM30,37h1v1h-1zM33,37h1v1h-1zM34,37h1v1h-1zM38,37h1v1h-1zM39,37h1v1h-1zM42,37h1v1h-1zM2,38h1v1h-1zM4,38h1v1h-1zM5,38h1v1h-1zM6,38h1v1h-1zM8,38h1v1h-1zM10,38h1v1h-1zM11,38h1v1h-1zM12,38h1v1h-1zM14,38h1v1h-1zM15,38h1v1h-1zM20,38h1v1h-1zM21,38h1v1h-1zM24,38h1v1h-1zM27,38h1v1h-1zM28,38h1v1h-1zM33,38h1v1h-1zM34,38h1v1h-1zM35,38h1v1h-1zM36,38h1v1h-1zM37,38h1v1h-1zM38,38h1v1h-1zM39,38h1v1h-1zM41,38h1v1h-1zM2,39h1v1h-1zM4,39h1v1h-1zM5,39h1v1h-1zM6,39h1v1h-1zM8,39h1v1h-1zM11,39h1v1h-1zM13,39h1v1h-1zM16,39h1v1h-1zM17,39h1v1h-1zM19,39h1v1h-1zM23,39h1v1h-1zM25,39h1v1h-1zM29,39h1v1h-1zM30,39h1v1h-1zM31,39h1v1h-1zM32,39h1v1h-1zM37,39h1v1h-1zM40,39h1v1h-1zM41,39h1v1h-1zM2,40h1v1h-1zM4,40h1v1h-1zM5,40h1v1h-1zM6,40h1v1h-1zM8,40h1v1h-1zM11,40h1v1h-1zM13,40h1v1h-1zM14,40h1v1h-1zM16,40h1v1h-1zM18,40h1v1h-1zM20,40h1v1h-1zM25,40h1v1h-1zM26,40h1v1h-1zM27,40h1v1h-1zM28,40h1v1h-1zM29,40h1v1h-1zM31,40h1v1h-1zM32,40h1v1h-1zM33,40h1v1h-1zM34,40h1v1h-1zM35,40h1v1h-1zM39,40h1v1h-1zM42,40h1v1h-1zM2,41h1v1h-1zM8,41h1v1h-1zM11,41h1v1h-1zM12,41h1v1h-1zM13,41h1v1h-1zM14,41h1v1h-1zM17,41h1v1h-1zM18,41h1v1h-1zM20,41h1v1h-1zM21,41h1v1h-1zM22,41h1v1h-1zM23,41h1v1h-1zM24,41h1v1h-1zM26,41h1v1h-1zM29,41h1v1h-1zM30,41h1v1h-1zM31,41h1v1h-1zM32,41h1v1h-1zM33,41h1v1h-1zM34,41h1v1h-1zM37,41h1v1h-1zM39,41h1v1h-1zM41,41h1v1h-1zM42,41h1v1h-1zM2,42h1v1h-1zM3,42h1v1h-1zM4,42h1v1h-1zM5,42h1v1h-1zM6,42h1v1h-1zM7,42h1v1h-1zM8,42h1v1h-1zM10,42h1v1h-1zM11,42h1v1h-1zM12,42h1v1h-1zM13,42h1v1h-1zM15,42h1v1h-1zM18,42h1v1h-1zM20,42h1v1h-1zM21,42h1v1h-1zM22,42h1v1h-1zM23,42h1v1h-1zM24,42h1v1h-1zM25,42h1v1h-1zM31,42h1v1h-1zM34,42h1v1h-1zM35,42h1v1h-1zM36,42h1v1h-1zM37,42h1v1h-1zM38,42h1v1h-1zM39,42h1v1h-1zM41,42h1v1h-1z" fill="#e0e6ed"/>
  </g>
  <!-- Text -->
  <text x="152" y="36" fill="url(#accent)" font-family="monospace" font-size="11" font-weight="bold">FORGE-ALLOY</text>
  <text x="152" y="54" fill="#8a92a5" font-family="monospace" font-size="9">attestation chain</text>
  <text x="152" y="78" fill="#e0e6ed" font-family="monospace" font-size="8">9ea5773c5d81ec6a</text>
  <text x="152" y="96" fill="#5a6a7a" font-family="monospace" font-size="8">97 commits</text>
  <text x="152" y="118" fill="#00ffc8" font-family="monospace" font-size="8">scan to verify</text>
  <!-- Bottom bar -->
  <rect x="0" y="148" width="280" height="12" rx="0" fill="rgba(0,212,255,0.06)"/>
  <text x="140" y="157" fill="#5a6a7a" font-family="monospace" font-size="7" text-anchor="middle">git is the merkle chain</text>
</svg>